<?xml version="1.0" encoding="UTF-8" standalone="no"?>
<svg
   xmlns:dc="http://purl.org/dc/elements/1.1/"
   xmlns:cc="http://creativecommons.org/ns#"
   xmlns:rdf="http://www.w3.org/1999/02/22-rdf-syntax-ns#"
   xmlns:svg="http://www.w3.org/2000/svg"
   xmlns="http://www.w3.org/2000/svg"
   xmlns:sodipodi="http://sodipodi.sourceforge.net/DTD/sodipodi-0.dtd"
   xmlns:inkscape="http://www.inkscape.org/namespaces/inkscape"
   version="1.1"
   x="0px"
   y="0px"
   viewBox="0 0 100 100"
   enable-background="new 0 0 100 100"
   xml:space="preserve"
   id="svg4576"
   sodipodi:docname="grpc-curl.svg"
   inkscape:version="0.92.4 (5da689c313, 2019-01-14)"
   inkscape:export-filename="C:\code\GrpcCurl\img\grpc-curl.png"
   inkscape:export-xdpi="132.13"
   inkscape:export-ydpi="132.13"><metadata
     id="metadata4582"><rdf:RDF><cc:Work
         rdf:about=""><dc:format>image/svg+xml</dc:format><dc:type
           rdf:resource="http://purl.org/dc/dcmitype/StillImage" /></cc:Work></rdf:RDF></metadata><defs
     id="defs4580" /><sodipodi:namedview
     pagecolor="#ffffff"
     bordercolor="#666666"
     borderopacity="1"
     objecttolerance="10"
     gridtolerance="10"
     guidetolerance="10"
     inkscape:pageopacity="0"
     inkscape:pageshadow="2"
     inkscape:window-width="3840"
     inkscape:window-height="2054"
     id="namedview4578"
     showgrid="false"
     inkscape:zoom="13.350176"
     inkscape:cx="62.356356"
     inkscape:cy="52.482575"
     inkscape:window-x="-11"
     inkscape:window-y="-11"
     inkscape:window-maximized="1"
     inkscape:current-layer="svg4576" /><g
     id="g4574"><path
       d="M 49.997,3.5 C 24.359,3.5 3.501,24.358 3.501,49.997 3.501,75.639 24.359,96.5 49.997,96.5 75.639,96.5 96.499,75.639 96.499,49.997 96.499,24.358 75.639,3.5 49.997,3.5 Z m 0,90 C 26.014,93.5 6.501,73.985 6.501,49.997 6.501,26.013 26.014,6.5 49.997,6.5 73.984,6.5 93.499,26.013 93.499,49.997 93.499,73.985 73.984,93.5 49.997,93.5 Z"
       id="path4556"
       inkscape:connector-curvature="0"
       style="fill:#008080" /><path
       d="m 49.986,16.645 c -18.39,0 -33.351,14.962 -33.351,33.353 0,18.391 14.962,33.352 33.351,33.352 18.389,0 33.352,-14.962 33.352,-33.353 0,-18.391 -14.962,-33.352 -33.352,-33.352 z m 0,63.705 c -16.16,0 -29.408,-12.697 -30.299,-28.64 h 2.487 c 1.203,0 2.185,-0.722 2.185,-1.608 0,-0.884 -0.981,-1.606 -2.185,-1.606 h -2.501 c 0.785,-16.042 14.081,-28.851 30.313,-28.851 16.23,0 29.524,12.806 30.313,28.844 h -2.657 c -1.202,0 -2.188,0.722 -2.188,1.608 0,0.885 0.986,1.606 2.188,1.606 h 2.645 C 79.398,67.649 66.149,80.35 49.986,80.35 Z"
       id="path4558"
       inkscape:connector-curvature="0"
       style="fill:#008080" /><path
       d="M 64.473,48.317 H 35.277 c -1.059,0 -1.928,0.868 -1.928,1.927 0,1.06 0.869,1.928 1.928,1.928 h 29.195 c 1.059,0 1.924,-0.868 1.924,-1.928 0,-1.059 -0.865,-1.927 -1.923,-1.927 z"
       id="path4560"
       inkscape:connector-curvature="0"
       style="fill:#aca793" /><path
       d="M 57.721,55.469 H 42.203 c -1.059,0 -1.927,0.869 -1.927,1.928 0,1.059 0.868,1.927 1.927,1.927 h 15.518 c 1.059,0 1.928,-0.869 1.928,-1.927 0,-1.058 -0.87,-1.928 -1.928,-1.928 z"
       id="path4562"
       inkscape:connector-curvature="0"
       style="fill:#abc837" /><path
       d="m 53.453,62.654 h -7.007 c -1.063,0 -1.928,0.865 -1.928,1.923 0,1.058 0.865,1.928 1.928,1.928 h 7.007 c 1.059,0 1.928,-0.869 1.928,-1.928 0,-1.059 -0.869,-1.923 -1.928,-1.923 z"
       id="path4564"
       inkscape:connector-curvature="0"
       style="fill:#66ff00" /><path
       d="m 42.203,45.12 h 15.518 c 1.059,0 1.928,-0.864 1.928,-1.928 0,-1.059 -0.869,-1.923 -1.928,-1.923 H 42.203 c -1.059,0 -1.927,0.865 -1.927,1.923 0,1.064 0.869,1.928 1.927,1.928 z"
       id="path4566"
       inkscape:connector-curvature="0"
       style="fill:#ffcc00" /><path
       d="m 46.446,37.939 h 7.007 c 1.059,0 1.928,-0.869 1.928,-1.928 0,-1.059 -0.869,-1.924 -1.928,-1.924 h -7.007 c -1.063,0 -1.928,0.865 -1.928,1.924 0,1.059 0.866,1.928 1.928,1.928 z"
       id="path4568"
       inkscape:connector-curvature="0"
       style="fill:#ff6600" /><path
       d="m 48.366,30.997 h 3.115 c 1.059,0 1.923,-0.865 1.923,-1.928 0,-1.059 -0.864,-1.924 -1.923,-1.924 h -3.115 c -1.06,0 -1.928,0.865 -1.928,1.924 0,1.063 0.869,1.928 1.928,1.928 z"
       id="path4570"
       inkscape:connector-curvature="0"
       style="fill:#ff0000" /><path
       d="m 51.481,69.916 h -3.115 c -1.06,0 -1.928,0.864 -1.928,1.923 0,1.06 0.868,1.928 1.928,1.928 h 3.115 c 1.059,0 1.923,-0.868 1.923,-1.928 0,-1.059 -0.864,-1.923 -1.923,-1.923 z"
       id="path4572"
       inkscape:connector-curvature="0"
       style="fill:#00d4aa" /><path
       style="fill:#008080"
       inkscape:connector-curvature="0"
       id="path5127"
       d="M 49.997,3.5 C 24.359,3.5 3.501,24.358 3.501,49.997 3.501,75.639 24.359,96.5 49.997,96.5 75.639,96.5 96.499,75.639 96.499,49.997 96.499,24.358 75.639,3.5 49.997,3.5 Z m 0,90 C 26.014,93.5 6.501,73.985 6.501,49.997 6.501,26.013 26.014,6.5 49.997,6.5 73.984,6.5 93.499,26.013 93.499,49.997 93.499,73.985 73.984,93.5 49.997,93.5 Z" /></g></svg>